<svg width="301" height="98" viewBox="0 0 301 98" fill="none" xmlns="http://www.w3.org/2000/svg">
<rect x="2.5" y="2.5" width="296" height="93" rx="3.5" stroke="#EC5B53" stroke-width="5"/>
<path d="M132.032 69C131.477 69 131.008 68.8293 130.624 68.488C130.283 68.104 130.112 67.6347 130.112 67.08V49.864C130.112 47.048 129.557 44.7227 128.448 42.888C127.381 41.0533 125.909 39.688 124.032 38.792C122.197 37.8533 120.107 37.384 117.76 37.384C115.456 37.384 113.387 37.832 111.552 38.728C109.717 39.5813 108.267 40.776 107.2 42.312C106.133 43.848 105.6 45.576 105.6 47.496H102.4C102.571 44.8507 103.36 42.4827 104.768 40.392C106.176 38.2587 108.011 36.5947 110.272 35.4C112.533 34.1627 115.029 33.544 117.76 33.544C120.832 33.544 123.584 34.184 126.016 35.464C128.491 36.7013 130.432 38.536 131.84 40.968C133.248 43.3573 133.952 46.3227 133.952 49.864V67.08C133.952 67.6347 133.76 68.104 133.376 68.488C133.035 68.8293 132.587 69 132.032 69ZM103.68 69C103.125 69 102.656 68.8293 102.272 68.488C101.931 68.104 101.76 67.6347 101.76 67.08V35.912C101.76 35.3147 101.931 34.8453 102.272 34.504C102.656 34.1627 103.125 33.992 103.68 33.992C104.277 33.992 104.747 34.1627 105.088 34.504C105.429 34.8453 105.6 35.3147 105.6 35.912V67.08C105.6 67.6347 105.429 68.104 105.088 68.488C104.747 68.8293 104.277 69 103.68 69ZM160.311 69.32C156.94 69.32 153.932 68.5733 151.287 67.08C148.684 65.544 146.636 63.432 145.143 60.744C143.649 58.056 142.903 54.984 142.903 51.528C142.903 48.0293 143.607 44.9573 145.015 42.312C146.423 39.624 148.364 37.512 150.839 35.976C153.313 34.44 156.151 33.672 159.351 33.672C162.508 33.672 165.303 34.4187 167.735 35.912C170.167 37.3627 172.065 39.3893 173.431 41.992C174.796 44.552 175.479 47.5173 175.479 50.888C175.479 51.4427 175.308 51.8907 174.967 52.232C174.625 52.5307 174.177 52.68 173.623 52.68H145.463V49.352H174.647L171.831 51.464C171.916 48.6907 171.447 46.2373 170.423 44.104C169.399 41.9707 167.927 40.3067 166.007 39.112C164.129 37.8747 161.911 37.256 159.351 37.256C156.919 37.256 154.743 37.8747 152.823 39.112C150.945 40.3067 149.452 41.9707 148.343 44.104C147.276 46.2373 146.743 48.712 146.743 51.528C146.743 54.3013 147.319 56.7547 148.47 58.888C149.623 61.0213 151.223 62.7067 153.271 63.944C155.319 65.1387 157.665 65.736 160.311 65.736C161.975 65.736 163.639 65.4587 165.303 64.904C167.009 64.3067 168.353 63.5387 169.335 62.6C169.676 62.2587 170.081 62.088 170.551 62.088C171.063 62.0453 171.489 62.1733 171.831 62.472C172.3 62.856 172.535 63.2827 172.535 63.752C172.577 64.2213 172.385 64.648 171.958 65.032C170.593 66.2693 168.801 67.2933 166.583 68.104C164.407 68.9147 162.316 69.32 160.311 69.32ZM232.015 69C231.46 69 230.991 68.8293 230.607 68.488C230.265 68.104 230.095 67.6347 230.095 67.08V48.584C230.095 45.2987 229.22 42.6107 227.471 40.52C225.764 38.4293 223.524 37.384 220.751 37.384C217.807 37.384 215.396 38.3653 213.519 40.328C211.684 42.248 210.809 44.8507 210.895 48.136H207.055C207.14 45.192 207.78 42.632 208.975 40.456C210.169 38.28 211.791 36.5947 213.839 35.4C215.887 34.1627 218.191 33.544 220.751 33.544C223.353 33.544 225.636 34.184 227.599 35.464C229.561 36.744 231.097 38.5147 232.207 40.776C233.359 43.0373 233.935 45.64 233.935 48.584V67.08C233.935 67.6347 233.764 68.104 233.423 68.488C233.081 68.8293 232.612 69 232.015 69ZM185.743 69C185.188 69 184.719 68.8293 184.335 68.488C183.993 68.104 183.823 67.6347 183.823 67.08V35.912C183.823 35.3147 183.993 34.8453 184.335 34.504C184.719 34.1627 185.188 33.992 185.743 33.992C186.34 33.992 186.809 34.1627 187.151 34.504C187.492 34.8453 187.663 35.3147 187.663 35.912V67.08C187.663 67.6347 187.492 68.104 187.151 68.488C186.809 68.8293 186.34 69 185.743 69ZM208.975 69C208.42 69 207.951 68.8293 207.567 68.488C207.225 68.104 207.055 67.6347 207.055 67.08V48.584C207.055 45.2987 206.18 42.6107 204.431 40.52C202.724 38.4293 200.484 37.384 197.711 37.384C194.767 37.384 192.356 38.3227 190.479 40.2C188.601 42.0773 187.663 44.5093 187.663 47.496H184.463C184.591 44.7653 185.231 42.3547 186.383 40.264C187.577 38.1733 189.156 36.5307 191.119 35.336C193.081 34.1413 195.279 33.544 197.711 33.544C200.313 33.544 202.596 34.184 204.559 35.464C206.521 36.744 208.057 38.5147 209.167 40.776C210.319 43.0373 210.895 45.64 210.895 48.584V67.08C210.895 67.6347 210.724 68.104 210.382 68.488C210.041 68.8293 209.572 69 208.975 69ZM251.863 69C250.241 69 248.791 68.552 247.51 67.656C246.273 66.76 245.292 65.5227 244.567 63.944C243.884 62.3653 243.543 60.5307 243.543 58.44V20.936C243.543 20.3387 243.713 19.8693 244.055 19.528C244.439 19.1867 244.908 19.016 245.463 19.016C246.06 19.016 246.529 19.1867 246.871 19.528C247.212 19.8693 247.383 20.3387 247.383 20.936V58.44C247.383 60.4027 247.788 62.024 248.599 63.304C249.452 64.5413 250.54 65.16 251.863 65.16H253.463C253.932 65.16 254.316 65.3307 254.615 65.672C254.913 66.0133 255.062 66.4827 255.062 67.08C255.062 67.6347 254.892 68.104 254.551 68.488C254.209 68.8293 253.74 69 253.143 69H251.863ZM265.273 69C264.718 69 264.249 68.8293 263.865 68.488C263.523 68.104 263.353 67.6347 263.353 67.08V35.912C263.353 35.3147 263.523 34.8453 263.865 34.504C264.249 34.1627 264.718 33.992 265.273 33.992C265.87 33.992 266.339 34.1627 266.681 34.504C267.022 34.8453 267.193 35.3147 267.193 35.912V67.08C267.193 67.6347 267.022 68.104 266.681 68.488C266.339 68.8293 265.87 69 265.273 69ZM265.209 26.632C264.398 26.632 263.694 26.3547 263.097 25.8C262.542 25.2027 262.265 24.4773 262.265 23.624C262.265 22.6427 262.563 21.9173 263.161 21.448C263.801 20.936 264.505 20.68 265.273 20.68C265.998 20.68 266.659 20.936 267.257 21.448C267.897 21.9173 268.217 22.6427 268.217 23.624C268.217 24.4773 267.918 25.2027 267.321 25.8C266.766 26.3547 266.062 26.632 265.209 26.632Z" fill="#EC5B53"/>
<path d="M81 49.7144L72.9351 54.3897L81 63.039L51 80.3377L21 49.091L50.4156 66.3118L21 35.3767L51 52.7533L72.4286 40.2858L81 49.7144V49.7144Z" fill="#EC5B53"/>
</svg>
